<svg width="216" height="72" viewBox="0 0 216 72" fill="none" xmlns="http://www.w3.org/2000/svg">
<path d="M1.476 6.8H7.344C9.384 6.8 10.872 7.28 11.808 8.24C12.744 9.176 13.212 10.628 13.212 12.596V14.144C13.212 16.76 12.348 18.416 10.62 19.112V19.184C11.58 19.472 12.252 20.06 12.636 20.948C13.044 21.836 13.248 23.024 13.248 24.512V28.94C13.248 29.66 13.272 30.248 13.32 30.704C13.368 31.136 13.488 31.568 13.68 32H9.648C9.504 31.592 9.408 31.208 9.36 30.848C9.312 30.488 9.288 29.84 9.288 28.904V24.296C9.288 23.144 9.096 22.34 8.712 21.884C8.352 21.428 7.716 21.2 6.804 21.2H5.436V32H1.476V6.8ZM6.876 17.6C7.668 17.6 8.256 17.396 8.64 16.988C9.048 16.58 9.252 15.896 9.252 14.936V12.992C9.252 12.08 9.084 11.42 8.748 11.012C8.436 10.604 7.932 10.4 7.236 10.4H5.436V17.6H6.876ZM19.0555 6.8H24.4195L28.5235 32H24.5635L23.8435 26.996V27.068H19.3435L18.6235 32H14.9515L19.0555 6.8ZM23.3755 23.648L21.6115 11.192H21.5395L19.8115 23.648H23.3755ZM30.4448 6.8H35.4128L39.2648 21.884H39.3368V6.8H42.8648V32H38.7968L34.0448 13.604H33.9728V32H30.4448V6.8ZM45.808 6.8H51.856C53.824 6.8 55.3 7.328 56.284 8.384C57.268 9.44 57.76 10.988 57.76 13.028V25.772C57.76 27.812 57.268 29.36 56.284 30.416C55.3 31.472 53.824 32 51.856 32H45.808V6.8ZM51.784 28.4C52.432 28.4 52.924 28.208 53.26 27.824C53.62 27.44 53.8 26.816 53.8 25.952V12.848C53.8 11.984 53.62 11.36 53.26 10.976C52.924 10.592 52.432 10.4 51.784 10.4H49.768V28.4H51.784ZM66.157 32.36C64.213 32.36 62.725 31.808 61.693 30.704C60.661 29.6 60.145 28.04 60.145 26.024V12.776C60.145 10.76 60.661 9.2 61.693 8.096C62.725 6.992 64.213 6.44 66.157 6.44C68.101 6.44 69.589 6.992 70.621 8.096C71.653 9.2 72.169 10.76 72.169 12.776V26.024C72.169 28.04 71.653 29.6 70.621 30.704C69.589 31.808 68.101 32.36 66.157 32.36ZM66.157 28.76C67.525 28.76 68.209 27.932 68.209 26.276V12.524C68.209 10.868 67.525 10.04 66.157 10.04C64.789 10.04 64.105 10.868 64.105 12.524V26.276C64.105 27.932 64.789 28.76 66.157 28.76ZM74.8471 6.8H80.4991L83.0191 24.836H83.0911L85.6111 6.8H91.2631V32H87.5191V12.92H87.4471L84.5671 32H81.2551L78.3751 12.92H78.3031V32H74.8471V6.8ZM99.9838 6.8H105.816C107.784 6.8 109.26 7.328 110.244 8.384C111.228 9.44 111.72 10.988 111.72 13.028V15.512C111.72 17.552 111.228 19.1 110.244 20.156C109.26 21.212 107.784 21.74 105.816 21.74H103.944V32H99.9838V6.8ZM105.816 18.14C106.464 18.14 106.944 17.96 107.256 17.6C107.592 17.24 107.76 16.628 107.76 15.764V12.776C107.76 11.912 107.592 11.3 107.256 10.94C106.944 10.58 106.464 10.4 105.816 10.4H103.944V18.14H105.816ZM115.665 6.8H121.029L125.133 32H121.173L120.453 26.996V27.068H115.953L115.233 32H111.561L115.665 6.8ZM119.985 23.648L118.221 11.192H118.149L116.421 23.648H119.985ZM132.097 32.36C130.177 32.36 128.725 31.82 127.741 30.74C126.757 29.636 126.265 28.064 126.265 26.024V24.584H130.009V26.312C130.009 27.944 130.693 28.76 132.061 28.76C132.733 28.76 133.237 28.568 133.573 28.184C133.933 27.776 134.113 27.128 134.113 26.24C134.113 25.184 133.873 24.26 133.393 23.468C132.913 22.652 132.025 21.68 130.729 20.552C129.097 19.112 127.957 17.816 127.309 16.664C126.661 15.488 126.337 14.168 126.337 12.704C126.337 10.712 126.841 9.176 127.849 8.096C128.857 6.992 130.321 6.44 132.241 6.44C134.137 6.44 135.565 6.992 136.525 8.096C137.509 9.176 138.001 10.736 138.001 12.776V13.82H134.257V12.524C134.257 11.66 134.089 11.036 133.753 10.652C133.417 10.244 132.925 10.04 132.277 10.04C130.957 10.04 130.297 10.844 130.297 12.452C130.297 13.364 130.537 14.216 131.017 15.008C131.521 15.8 132.421 16.76 133.717 17.888C135.373 19.328 136.513 20.636 137.137 21.812C137.761 22.988 138.073 24.368 138.073 25.952C138.073 28.016 137.557 29.6 136.525 30.704C135.517 31.808 134.041 32.36 132.097 32.36ZM145.491 32.36C143.571 32.36 142.119 31.82 141.135 30.74C140.151 29.636 139.659 28.064 139.659 26.024V24.584H143.403V26.312C143.403 27.944 144.087 28.76 145.455 28.76C146.127 28.76 146.631 28.568 146.967 28.184C147.327 27.776 147.507 27.128 147.507 26.24C147.507 25.184 147.267 24.26 146.787 23.468C146.307 22.652 145.419 21.68 144.123 20.552C142.491 19.112 141.351 17.816 140.703 16.664C140.055 15.488 139.731 14.168 139.731 12.704C139.731 10.712 140.235 9.176 141.243 8.096C142.251 6.992 143.715 6.44 145.635 6.44C147.531 6.44 148.959 6.992 149.919 8.096C150.903 9.176 151.395 10.736 151.395 12.776V13.82H147.651V12.524C147.651 11.66 147.483 11.036 147.147 10.652C146.811 10.244 146.319 10.04 145.671 10.04C144.351 10.04 143.691 10.844 143.691 12.452C143.691 13.364 143.931 14.216 144.411 15.008C144.915 15.8 145.815 16.76 147.111 17.888C148.767 19.328 149.907 20.636 150.531 21.812C151.155 22.988 151.467 24.368 151.467 25.952C151.467 28.016 150.951 29.6 149.919 30.704C148.911 31.808 147.435 32.36 145.491 32.36ZM152.802 6.8H156.618L158.382 26.168H158.454L160.326 6.8H164.646L166.518 26.168H166.59L168.354 6.8H171.774L169.218 32H164.286L162.486 15.008H162.414L160.614 32H155.358L152.802 6.8ZM179.501 32.36C177.557 32.36 176.069 31.808 175.037 30.704C174.005 29.6 173.489 28.04 173.489 26.024V12.776C173.489 10.76 174.005 9.2 175.037 8.096C176.069 6.992 177.557 6.44 179.501 6.44C181.445 6.44 182.933 6.992 183.965 8.096C184.997 9.2 185.513 10.76 185.513 12.776V26.024C185.513 28.04 184.997 29.6 183.965 30.704C182.933 31.808 181.445 32.36 179.501 32.36ZM179.501 28.76C180.869 28.76 181.553 27.932 181.553 26.276V12.524C181.553 10.868 180.869 10.04 179.501 10.04C178.133 10.04 177.449 10.868 177.449 12.524V26.276C177.449 27.932 178.133 28.76 179.501 28.76ZM188.191 6.8H194.059C196.099 6.8 197.587 7.28 198.523 8.24C199.459 9.176 199.927 10.628 199.927 12.596V14.144C199.927 16.76 199.063 18.416 197.335 19.112V19.184C198.295 19.472 198.967 20.06 199.351 20.948C199.759 21.836 199.963 23.024 199.963 24.512V28.94C199.963 29.66 199.987 30.248 200.035 30.704C200.083 31.136 200.203 31.568 200.395 32H196.363C196.219 31.592 196.123 31.208 196.075 30.848C196.027 30.488 196.003 29.84 196.003 28.904V24.296C196.003 23.144 195.811 22.34 195.427 21.884C195.067 21.428 194.431 21.2 193.519 21.2H192.151V32H188.191V6.8ZM193.591 17.6C194.383 17.6 194.971 17.396 195.355 16.988C195.763 16.58 195.967 15.896 195.967 14.936V12.992C195.967 12.08 195.799 11.42 195.463 11.012C195.151 10.604 194.647 10.4 193.951 10.4H192.151V17.6H193.591ZM202.71 6.8H208.758C210.726 6.8 212.202 7.328 213.186 8.384C214.17 9.44 214.662 10.988 214.662 13.028V25.772C214.662 27.812 214.17 29.36 213.186 30.416C212.202 31.472 210.726 32 208.758 32H202.71V6.8ZM208.686 28.4C209.334 28.4 209.826 28.208 210.162 27.824C210.522 27.44 210.702 26.816 210.702 25.952V12.848C210.702 11.984 210.522 11.36 210.162 10.976C209.826 10.592 209.334 10.4 208.686 10.4H206.67V28.4H208.686Z" fill="#EBEBEB"/>
<path d="M58.752 48.48C57.936 48.48 57.528 48.12 57.528 47.4C57.528 47.064 57.768 46.596 58.248 45.996C58.752 45.396 59.076 44.94 59.22 44.628C58.26 44.82 57.336 44.916 56.448 44.916C55.56 44.916 55.104 44.724 55.08 44.34C55.08 44.052 55.344 43.908 55.872 43.908C57.432 43.908 58.716 43.716 59.724 43.332C58.836 42.348 58.32 41.808 58.176 41.712C58.056 41.592 57.876 41.448 57.636 41.28C57.396 41.088 57.24 40.968 57.168 40.92C57.096 40.848 56.976 40.74 56.808 40.596C56.64 40.428 56.532 40.296 56.484 40.2C56.316 39.864 56.232 39.576 56.232 39.336C56.232 38.784 56.568 38.508 57.24 38.508C57.528 38.508 57.768 38.604 57.96 38.796C58.152 38.988 58.32 39.18 58.464 39.372C58.632 39.564 58.776 39.744 58.896 39.912C59.352 40.464 59.832 41.1 60.336 41.82C60.648 40.716 60.828 39.612 60.876 38.508C60.948 37.404 61.188 36.852 61.596 36.852C61.956 36.852 62.136 37.392 62.136 38.472C62.136 39.552 61.98 40.836 61.668 42.324C61.884 42.18 62.256 41.892 62.784 41.46C63.312 41.028 63.804 40.668 64.26 40.38C64.74 40.092 65.16 39.948 65.52 39.948C65.88 39.948 66.06 40.236 66.06 40.812C66.06 41.364 65.772 41.796 65.196 42.108C64.116 42.756 63.036 43.296 61.956 43.728C62.1 43.872 62.424 44.136 62.928 44.52C64.176 45.408 64.8 46.056 64.8 46.464C64.8 46.728 64.656 46.86 64.368 46.86C63.456 46.86 62.352 46.164 61.056 44.772C61.008 44.892 60.912 45.192 60.768 45.672C60.648 46.152 60.54 46.512 60.444 46.752C60.348 46.968 60.216 47.232 60.048 47.544C59.736 48.168 59.304 48.48 58.752 48.48ZM72.1817 48.48C71.3657 48.48 70.9577 48.12 70.9577 47.4C70.9577 47.064 71.1977 46.596 71.6777 45.996C72.1817 45.396 72.5057 44.94 72.6497 44.628C71.6897 44.82 70.7657 44.916 69.8777 44.916C68.9897 44.916 68.5337 44.724 68.5097 44.34C68.5097 44.052 68.7737 43.908 69.3017 43.908C70.8617 43.908 72.1457 43.716 73.1537 43.332C72.2657 42.348 71.7497 41.808 71.6057 41.712C71.4857 41.592 71.3057 41.448 71.0657 41.28C70.8257 41.088 70.6697 40.968 70.5977 40.92C70.5257 40.848 70.4057 40.74 70.2377 40.596C70.0697 40.428 69.9617 40.296 69.9137 40.2C69.7457 39.864 69.6617 39.576 69.6617 39.336C69.6617 38.784 69.9977 38.508 70.6697 38.508C70.9577 38.508 71.1977 38.604 71.3897 38.796C71.5817 38.988 71.7497 39.18 71.8937 39.372C72.0617 39.564 72.2057 39.744 72.3257 39.912C72.7817 40.464 73.2617 41.1 73.7657 41.82C74.0777 40.716 74.2577 39.612 74.3057 38.508C74.3777 37.404 74.6177 36.852 75.0257 36.852C75.3857 36.852 75.5657 37.392 75.5657 38.472C75.5657 39.552 75.4097 40.836 75.0977 42.324C75.3137 42.18 75.6857 41.892 76.2137 41.46C76.7417 41.028 77.2337 40.668 77.6897 40.38C78.1697 40.092 78.5897 39.948 78.9497 39.948C79.3097 39.948 79.4897 40.236 79.4897 40.812C79.4897 41.364 79.2017 41.796 78.6257 42.108C77.5457 42.756 76.4657 43.296 75.3857 43.728C75.5297 43.872 75.8537 44.136 76.3577 44.52C77.6057 45.408 78.2297 46.056 78.2297 46.464C78.2297 46.728 78.0857 46.86 77.7977 46.86C76.8857 46.86 75.7817 46.164 74.4857 44.772C74.4377 44.892 74.3417 45.192 74.1977 45.672C74.0777 46.152 73.9697 46.512 73.8737 46.752C73.7777 46.968 73.6457 47.232 73.4777 47.544C73.1657 48.168 72.7337 48.48 72.1817 48.48ZM85.6114 48.48C84.7954 48.48 84.3874 48.12 84.3874 47.4C84.3874 47.064 84.6274 46.596 85.1074 45.996C85.6114 45.396 85.9354 44.94 86.0794 44.628C85.1194 44.82 84.1954 44.916 83.3074 44.916C82.4194 44.916 81.9634 44.724 81.9394 44.34C81.9394 44.052 82.2034 43.908 82.7314 43.908C84.2914 43.908 85.5754 43.716 86.5834 43.332C85.6954 42.348 85.1794 41.808 85.0354 41.712C84.9154 41.592 84.7354 41.448 84.4954 41.28C84.2554 41.088 84.0994 40.968 84.0274 40.92C83.9554 40.848 83.8354 40.74 83.6674 40.596C83.4994 40.428 83.3914 40.296 83.3434 40.2C83.1754 39.864 83.0914 39.576 83.0914 39.336C83.0914 38.784 83.4274 38.508 84.0994 38.508C84.3874 38.508 84.6274 38.604 84.8194 38.796C85.0114 38.988 85.1794 39.18 85.3234 39.372C85.4914 39.564 85.6354 39.744 85.7554 39.912C86.2114 40.464 86.6914 41.1 87.1954 41.82C87.5074 40.716 87.6874 39.612 87.7354 38.508C87.8074 37.404 88.0474 36.852 88.4554 36.852C88.8154 36.852 88.9954 37.392 88.9954 38.472C88.9954 39.552 88.8394 40.836 88.5274 42.324C88.7434 42.18 89.1154 41.892 89.6434 41.46C90.1714 41.028 90.6634 40.668 91.1194 40.38C91.5994 40.092 92.0194 39.948 92.3794 39.948C92.7394 39.948 92.9194 40.236 92.9194 40.812C92.9194 41.364 92.6314 41.796 92.0554 42.108C90.9754 42.756 89.8954 43.296 88.8154 43.728C88.9594 43.872 89.2834 44.136 89.7874 44.52C91.0354 45.408 91.6594 46.056 91.6594 46.464C91.6594 46.728 91.5154 46.86 91.2274 46.86C90.3154 46.86 89.2114 46.164 87.9154 44.772C87.8674 44.892 87.7714 45.192 87.6274 45.672C87.5074 46.152 87.3994 46.512 87.3034 46.752C87.2074 46.968 87.0754 47.232 86.9074 47.544C86.5954 48.168 86.1634 48.48 85.6114 48.48ZM118.993 52.296C119.737 52.08 120.517 51.72 121.333 51.216C122.149 50.688 122.665 50.424 122.881 50.424C123.097 50.424 123.205 50.568 123.205 50.856C123.205 51.12 123.037 51.372 122.701 51.612C121.477 52.476 120.205 53.136 118.885 53.592C118.381 55.92 117.253 57.66 115.501 58.812C113.749 59.964 111.745 60.54 109.489 60.54C108.049 60.54 106.777 60.288 105.673 59.784C104.593 59.28 103.765 58.632 103.189 57.84C102.037 56.28 101.461 54.636 101.461 52.908C101.461 50.676 101.797 48.66 102.469 46.86C103.165 45.036 104.065 43.584 105.169 42.504C106.273 41.4 107.461 40.56 108.733 39.984C110.029 39.408 111.337 39.12 112.657 39.12C113.977 39.12 115.189 39.552 116.293 40.416C117.397 41.256 117.949 42.228 117.949 43.332C117.949 43.692 117.805 43.992 117.517 44.232C117.253 44.472 116.929 44.592 116.545 44.592C115.993 44.592 115.609 44.208 115.393 43.44C114.865 41.592 113.605 40.668 111.613 40.668C109.933 40.668 108.301 41.712 106.717 43.8C105.157 45.888 104.377 48.36 104.377 51.216C104.377 53.232 104.977 54.984 106.177 56.472C107.401 57.96 108.925 58.704 110.749 58.704C112.213 58.704 113.461 58.284 114.493 57.444C115.525 56.604 116.185 55.524 116.473 54.204C115.873 54.324 115.141 54.384 114.277 54.384C113.413 54.384 112.657 54.18 112.009 53.772C111.385 53.364 111.073 52.812 111.073 52.116C111.073 51.396 111.433 50.784 112.153 50.28C112.897 49.776 113.833 49.524 114.961 49.524C116.089 49.524 117.037 49.752 117.805 50.208C118.597 50.664 118.993 51.36 118.993 52.296ZM114.853 50.748C113.773 50.748 113.233 50.988 113.233 51.468C113.233 51.828 113.449 52.128 113.881 52.368C114.313 52.608 114.757 52.728 115.213 52.728C115.693 52.728 116.173 52.704 116.653 52.656C116.629 52.08 116.437 51.624 116.077 51.288C115.717 50.928 115.309 50.748 114.853 50.748ZM125.681 60.18C124.337 60.18 123.269 59.676 122.477 58.668C121.685 57.636 121.289 56.472 121.289 55.176C121.289 52.56 121.841 50.58 122.945 49.236C124.049 47.892 125.477 47.22 127.229 47.22C128.045 47.22 128.717 47.448 129.245 47.904C129.773 48.336 130.037 48.936 130.037 49.704C130.037 51.144 129.425 52.356 128.201 53.34C127.001 54.3 125.525 54.804 123.773 54.852C123.869 55.788 124.181 56.604 124.709 57.3C125.261 57.972 125.897 58.308 126.617 58.308C127.337 58.308 127.985 58.14 128.561 57.804C129.137 57.468 129.665 56.988 130.145 56.364C131.153 55.044 132.017 53.544 132.737 51.864C132.929 51.432 133.073 51.12 133.169 50.928C133.289 50.736 133.409 50.64 133.529 50.64C133.673 50.64 133.745 50.736 133.745 50.928C133.745 52.128 133.013 53.928 131.549 56.328C129.965 58.896 128.009 60.18 125.681 60.18ZM123.773 53.988C125.189 53.748 126.221 53.292 126.869 52.62C127.541 51.948 127.877 51.072 127.877 49.992C127.877 48.912 127.529 48.372 126.833 48.372C125.993 48.372 125.285 48.96 124.709 50.136C124.133 51.288 123.821 52.572 123.773 53.988ZM134.644 58.056L134.68 59.172C134.68 59.844 134.488 60.18 134.104 60.18C133.528 60.18 132.976 60.108 132.448 59.964C131.92 59.796 131.656 59.58 131.656 59.316C131.656 59.028 131.716 58.08 131.836 56.472C131.98 54.84 132.052 53.616 132.052 52.8V50.676C132.052 49.524 132.172 48.828 132.412 48.588C132.652 48.348 133.072 48 133.672 47.544C134.296 47.088 134.74 46.86 135.004 46.86C135.292 46.86 135.472 46.908 135.544 47.004C135.616 47.1 135.652 47.28 135.652 47.544C135.652 48.816 135.412 50.016 134.932 51.144C134.812 52.512 134.752 53.46 134.752 53.988C134.848 53.844 135.352 53.028 136.264 51.54C137.176 50.052 137.944 48.96 138.568 48.264C139.216 47.568 139.792 47.22 140.296 47.22C140.8 47.22 141.244 47.388 141.628 47.724C142.036 48.06 142.24 48.48 142.24 48.984C142.24 50.04 142.12 51.6 141.88 53.664C141.664 55.704 141.556 57 141.556 57.552C141.556 58.08 141.628 58.344 141.772 58.344C142.18 58.32 142.744 57.816 143.464 56.832C144.184 55.824 144.892 54.54 145.588 52.98C146.308 51.42 146.74 50.64 146.884 50.64C147.052 50.64 147.136 50.736 147.136 50.928C147.136 51.6 146.788 52.668 146.092 54.132C144.196 58.164 142.6 60.18 141.304 60.18C140.368 60.18 139.66 59.988 139.18 59.604C139.012 59.436 138.928 59.004 138.928 58.308C138.928 57.588 138.988 56.436 139.108 54.852C139.252 53.244 139.324 52.044 139.324 51.252C139.324 50.46 139.18 50.064 138.892 50.064C138.628 50.064 137.908 50.892 136.732 52.548C135.556 54.18 134.932 55.224 134.86 55.68C134.716 56.52 134.644 57.312 134.644 58.056ZM149.587 60.18C148.243 60.18 147.175 59.676 146.383 58.668C145.591 57.636 145.195 56.472 145.195 55.176C145.195 52.56 145.747 50.58 146.851 49.236C147.955 47.892 149.383 47.22 151.135 47.22C151.951 47.22 152.623 47.448 153.151 47.904C153.679 48.336 153.943 48.936 153.943 49.704C153.943 51.144 153.331 52.356 152.107 53.34C150.907 54.3 149.431 54.804 147.679 54.852C147.775 55.788 148.087 56.604 148.615 57.3C149.167 57.972 149.803 58.308 150.523 58.308C151.243 58.308 151.891 58.14 152.467 57.804C153.043 57.468 153.571 56.988 154.051 56.364C155.059 55.044 155.923 53.544 156.643 51.864C156.835 51.432 156.979 51.12 157.075 50.928C157.195 50.736 157.315 50.64 157.435 50.64C157.579 50.64 157.651 50.736 157.651 50.928C157.651 52.128 156.919 53.928 155.455 56.328C153.871 58.896 151.915 60.18 149.587 60.18ZM147.679 53.988C149.095 53.748 150.127 53.292 150.775 52.62C151.447 51.948 151.783 51.072 151.783 49.992C151.783 48.912 151.435 48.372 150.739 48.372C149.899 48.372 149.191 48.96 148.615 50.136C148.039 51.288 147.727 52.572 147.679 53.988ZM158.874 50.604L160.854 50.388C161.046 50.388 161.214 50.496 161.358 50.712C161.502 50.928 161.574 51.156 161.574 51.396C161.574 51.636 161.49 52.452 161.322 53.844C161.178 55.236 161.106 56.34 161.106 57.156C161.106 57.948 161.178 58.344 161.322 58.344C161.73 58.32 162.294 57.816 163.014 56.832C163.734 55.824 164.442 54.54 165.138 52.98C165.858 51.42 166.29 50.64 166.434 50.64C166.602 50.64 166.686 50.736 166.686 50.928C166.686 51.6 166.338 52.668 165.642 54.132C163.746 58.164 162.15 60.18 160.854 60.18C159.918 60.18 159.21 59.988 158.73 59.604C158.562 59.436 158.478 58.392 158.478 56.472C158.478 54.552 158.682 52.908 159.09 51.54C157.698 51.54 156.726 51.096 156.174 50.208C155.886 49.752 155.742 49.236 155.742 48.66C155.742 48.084 155.862 47.58 156.102 47.148C156.342 46.716 156.678 46.5 157.11 46.5C157.566 46.5 157.974 46.74 158.334 47.22C158.718 47.676 158.91 48.192 158.91 48.768C158.91 49.344 158.742 49.92 158.406 50.496C158.502 50.568 158.658 50.604 158.874 50.604ZM175.034 60.18C174.098 60.18 173.39 59.988 172.91 59.604C172.742 59.436 172.658 59.016 172.658 58.344C172.658 57.648 172.682 56.724 172.73 55.572C172.106 57.132 171.482 58.296 170.858 59.064C170.258 59.808 169.478 60.18 168.518 60.18C167.558 60.18 166.718 59.736 165.998 58.848C165.278 57.936 164.918 56.52 164.918 54.6C164.918 52.656 165.458 50.94 166.538 49.452C167.642 47.964 169.082 47.22 170.858 47.22C171.626 47.22 172.49 47.724 173.45 48.732C173.642 48.468 173.978 48.156 174.458 47.796C174.962 47.412 175.382 47.22 175.718 47.22C176.078 47.22 176.258 47.676 176.258 48.588C176.258 48.828 176.186 49.296 176.042 49.992C175.922 50.688 175.778 51.192 175.61 51.504C175.394 52.056 175.286 54.012 175.286 57.372C175.286 58.02 175.358 58.344 175.502 58.344C175.91 58.32 176.474 57.816 177.194 56.832C177.914 55.824 178.622 54.54 179.318 52.98C180.038 51.42 180.47 50.64 180.614 50.64C180.782 50.64 180.866 50.736 180.866 50.928C180.866 51.6 180.518 52.668 179.822 54.132C177.926 58.164 176.33 60.18 175.034 60.18ZM170.642 48.66C169.97 48.66 169.25 49.164 168.482 50.172C167.738 51.156 167.366 52.32 167.366 53.664C167.366 55.008 167.558 56.112 167.942 56.976C168.35 57.84 168.878 58.272 169.526 58.272C170.318 58.272 171.482 56.292 173.018 52.332C173.042 52.14 173.066 51.816 173.09 51.36C173.138 50.88 173.174 50.52 173.198 50.28C172.982 49.896 172.598 49.536 172.046 49.2C171.518 48.84 171.05 48.66 170.642 48.66ZM186.763 54.132C184.867 58.164 183.259 60.18 181.939 60.18C180.643 60.18 179.875 60.024 179.635 59.712C179.419 59.4 179.311 58.368 179.311 56.616C179.311 54.864 179.479 52.332 179.815 49.02C178.615 48.78 177.979 48.288 177.907 47.544C177.907 47.16 178.159 46.968 178.663 46.968C179.167 46.968 179.611 47.064 179.995 47.256C180.211 45.528 180.463 43.776 180.751 42C180.823 41.544 181.051 41.112 181.435 40.704C181.819 40.296 182.191 40.092 182.551 40.092C182.863 40.092 183.019 40.584 183.019 41.568C183.019 42.024 182.851 44.124 182.515 47.868C183.163 47.748 183.871 47.508 184.639 47.148C185.431 46.788 185.899 46.608 186.043 46.608C186.475 46.608 186.691 46.74 186.691 47.004C186.715 47.244 186.271 47.58 185.359 48.012C184.447 48.42 183.463 48.732 182.407 48.948C182.119 52.452 181.975 55.104 181.975 56.904C181.975 57.864 182.119 58.344 182.407 58.344C182.839 58.32 183.415 57.816 184.135 56.832C184.855 55.848 185.563 54.576 186.259 53.016C186.979 51.432 187.411 50.64 187.555 50.64C187.723 50.64 187.807 50.736 187.807 50.928C187.807 51.6 187.459 52.668 186.763 54.132ZM197.209 52.188C198.169 51.876 198.829 51.612 199.189 51.396C199.573 51.156 199.861 50.976 200.053 50.856L200.485 50.604C200.605 50.532 200.701 50.496 200.773 50.496C200.965 50.496 201.061 50.604 201.061 50.82C201.061 51.036 200.689 51.42 199.945 51.972C199.201 52.5 198.277 52.98 197.173 53.412C197.005 55.428 196.369 57.06 195.265 58.308C194.161 59.556 192.589 60.18 190.549 60.18C189.061 60.18 187.921 59.592 187.129 58.416C186.337 57.216 185.941 55.824 185.941 54.24C185.941 52.632 186.409 51.12 187.345 49.704C188.305 48.288 189.529 47.58 191.017 47.58C191.689 47.1 192.481 46.86 193.393 46.86C194.329 46.86 195.193 47.352 195.985 48.336C196.777 49.32 197.185 50.604 197.209 52.188ZM194.869 54.024L193.573 54.096C192.469 54.096 191.533 53.772 190.765 53.124C189.997 52.452 189.613 51.72 189.613 50.928C189.613 50.136 189.745 49.452 190.009 48.876C188.977 49.692 188.461 51.3 188.461 53.7C188.461 54.852 188.701 55.956 189.181 57.012C189.661 58.044 190.417 58.56 191.449 58.56C192.481 58.56 193.285 58.128 193.861 57.264C194.437 56.376 194.773 55.296 194.869 54.024ZM192.637 48.048C192.253 48.048 191.953 48.228 191.737 48.588C191.521 48.924 191.413 49.296 191.413 49.704C191.413 50.592 191.713 51.312 192.313 51.864C192.937 52.416 193.657 52.692 194.473 52.692H194.905C194.857 51.516 194.653 50.448 194.293 49.488C193.957 48.528 193.405 48.048 192.637 48.048ZM202.187 50.604L204.167 50.388C204.359 50.388 204.527 50.496 204.671 50.712C204.815 50.928 204.887 51.156 204.887 51.396C204.887 51.636 204.803 52.452 204.635 53.844C204.491 55.236 204.419 56.34 204.419 57.156C204.419 57.948 204.491 58.344 204.635 58.344C205.043 58.32 205.607 57.816 206.327 56.832C207.047 55.824 207.755 54.54 208.451 52.98C209.171 51.42 209.603 50.64 209.747 50.64C209.915 50.64 209.999 50.736 209.999 50.928C209.999 51.6 209.651 52.668 208.955 54.132C207.059 58.164 205.463 60.18 204.167 60.18C203.231 60.18 202.523 59.988 202.043 59.604C201.875 59.436 201.791 58.392 201.791 56.472C201.791 54.552 201.995 52.908 202.403 51.54C201.011 51.54 200.039 51.096 199.487 50.208C199.199 49.752 199.055 49.236 199.055 48.66C199.055 48.084 199.175 47.58 199.415 47.148C199.655 46.716 199.991 46.5 200.423 46.5C200.879 46.5 201.287 46.74 201.647 47.22C202.031 47.676 202.223 48.192 202.223 48.768C202.223 49.344 202.055 49.92 201.719 50.496C201.815 50.568 201.971 50.604 202.187 50.604Z" fill="#333333"/>
</svg>
